<svg width="24" height="24" viewBox="0 0 144 144" fill="black" xmlns="http://www.w3.org/2000/svg">
    <path d="M127.1,107.3c-6.4-1.9-12.7-3.7-19.1-5.6c-24.8-7.3-80.6-24-80.6-24C20.8,74.6-2.5,53,1.8,54.2c5,1.5,44.8,11.8,59.8,16
    L46.2,32l8.1-1.7l31.7,48c15.6,4.6,31.1,9.1,46.7,13.7c4.3,1.3,12.7,7.5,11.3,11.6C142.3,107.8,131.4,108.6,127.1,107.3z M5.8,33.2
    L0,34l1.8,17.3L18.6,56L5.8,33.2z M37.9,84.5c-1.9,0-3.4,1.5-3.4,3.4s1.5,3.4,3.4,3.4s3.4-1.5,3.4-3.4S39.8,84.5,37.9,84.5z
    M48.1,87.9c-1.9,0-3.4,1.5-3.4,3.4s1.5,3.4,3.4,3.4s3.4-1.5,3.4-3.4S49.9,87.9,48.1,87.9z M112.2,107c-1.9,0-3.4,1.5-3.4,3.4
    s1.5,3.4,3.4,3.4s3.4-1.5,3.4-3.4S114.1,107,112.2,107z"></path>
</svg>
