<svg version="1.1" xmlns="http://www.w3.org/2000/svg"
	 width="22px" height="22px" viewBox="0 0 42 38" fill="white"
	 >
	<path d="M11.821,21.969l-2.994,-15.089c-0.374,-1.861 -2.023,-3.212 -3.92,-3.213l-2.294,0c-0.731,0 -1.333,-0.602 -1.333,-1.334c0,
	-0.731 0.602,-1.333 1.333,-1.333l2.294,0c3.156,-0.001 5.902,2.241 6.533,5.333l28.507,0c0.398,0.003 0.775,0.184 1.026,0.494c0.264,
	0.303 0.377,0.71 0.307,1.106l-2.667,13.334c-0.115,0.577 -0.6,1.013 -1.186,1.066l-25.56,2.32c-1.508,0.071 -2.71,1.331 -2.71,2.84c0,1.56 1.283,
	2.843 2.843,2.843c0.044,0 0.089,-0.001 0.133,-0.003l1.318,0c0.598,-2.289 2.696,-4 5.162,-4c2.466,0 4.564,1.711 5.163,4l5.675,0c0.598,-2.289 2.696
	,-4 5.162,-4c2.926,0 5.334,2.408 5.334,5.334c0,2.925 -2.408,5.333 -5.334,5.333c-2.466,0 -4.564,-1.71 -5.162,-4l-5.675,0c-0.599,2.29 -2.697,4 -5.163,
	4c-2.466,0 -4.564,-1.71 -5.162,-4l-1.318,0c-3.015,-0.019 -5.486,-2.505 -5.486,-5.52c0,-2.825 2.168,-5.217 4.98,-5.493l0.194,-0.018Zm22.792,7.031c-1.463,
	0 -2.666,1.204 -2.666,2.667c0,1.463 1.203,2.666 2.666,2.666c1.463,0 2.667,-1.203 2.667,-2.666c0,-1.463 -1.204,-2.667 -2.667,-2.667Zm-16,0c-1.463,0 -2.666,1.204
	-2.666,2.667c0,1.463 1.203,2.666 2.666,2.666c1.463,0 2.667,-1.203 2.667,-2.666c0,-1.463 -1.204,-2.667 -2.667,-2.667Zm-4.069,-7.278l21.629,-1.962l2.147,-10.76l-26.342,
	0l2.566,12.722Z" />
</svg>
